<svg id="Capa_1" enable-background="new 0 0 512.107 512.107" height="512" viewBox="0 0 512.107 512.107" width="512" xmlns="http://www.w3.org/2000/svg"><g><g id="_x3C_Group_x3E__11_"><g><path d="m351.723 164.656c-51.549-51.549-135.126-51.549-186.674 0s-46.27 133.214 5.278 184.763 129.847 53.46 181.396 1.911 51.549-135.125 0-186.674z" fill="#f7f9fa"/><path d="m357.678 344.958c-1.89 2.168-3.883 4.294-5.958 6.369-51.546 51.557-135.121 51.557-186.667 0-51.557-51.546-51.557-135.121 0-186.668 2.075-2.075 4.201-4.068 6.369-5.958-45.517 51.844-43.524 130.828 5.958 180.299 49.47 49.482 128.454 51.475 180.298 5.958z" fill="#e9edf1"/><path d="m329.974 186.405c-39.537-39.537-103.639-39.537-143.176 0s-35.026 98.823 4.511 138.36 99.128 44.352 138.665 4.816 39.537-103.639 0-143.176z" fill="#e9edf1"/><path d="m336.343 322.596c-1.993 2.404-4.119 4.736-6.369 6.985-39.538 39.538-103.637 39.538-143.175 0s-39.538-103.637 0-143.175c2.25-2.25 4.581-4.376 6.985-6.369-33.046 39.774-30.919 98.901 6.369 136.19 37.288 37.288 96.415 39.415 136.19 6.369z" fill="#dce6eb"/></g><g><path d="m180.613 450.64c-25.946-10.336-49.716-25.922-69.707-45.972l5.287.257c10.821.53 20.017-7.845 20.541-18.698.525-10.853-7.822-20.077-18.642-20.603l-47.119-2.291-10.514 7.317c-4.255 7.659-7.862 11.882-8.34 22.139l-2.553 31.987c-1.144 10.805-3.794 20.128 6.979 21.276 1.238.132 4.59 3.16 5.787 3.064 6.646-.532 14.133 2.811 17.261-2.908 1.212-2.217 2.016-4.706 2.299-7.378l.73-6.89c40.503 25.942 116.971 73.888 189.643 68.068 34.246-2.743 70.969-8.782 100.601-24.791 23.172-12.518 44.37-28.82 62.713-48.479 41.515-44.494 65.017-102.421 66.175-163.108.192-10.036-7.143-18.46-16.801-19.85-.797-.115-2.637 1.187-3.463 1.171-10.834-.204-4.849 3.774-7.34 14.35-27.063 114.871-52.05 140.79-110.814 176.29-26.617 16.08-57.283 26.328-90.333 28.975-19.598 1.57-39.012.305-57.739-3.547-5.362-1.206-11.025-2.658-16.936-4.414-6.336-1.882-12.247-3.901-17.715-5.965z" fill="#bed9fd"/><g fill="#9ec8fc"><path d="m482.531 252.876c.063-3.295.94-6.379 2.419-9.079-.798-.115-1.606-.198-2.432-.214-10.834-.204-19.779 8.43-19.986 19.293-1.434 75.13-42.416 140.408-103.656 175.325 72.171-31.273 122.07-102.282 123.655-185.325z"/><path d="m296.125 493.79c-67.481 5.405-132.278-14.274-181.449-57.746-7.715-6.821-18.453-9.253-28.198-5.924-1.576.538-2.924 1.138-3.857 1.821 55.666 55.43 126.126 77.246 193.505 71.849 35.419-2.837 69.35-13.259 99.767-30.254-25.017 11.104-51.932 18.024-79.768 20.254z"/><path d="m62.881 424.673 5.632-53.181c.135-2.908 1.034-5.68 2.459-8.159l-1.933-.094c-10.321-.704-20.048 7.995-20.526 18.253l-5.632 53.181c-1.144 10.805 6.661 20.494 17.433 21.642 1.238.132 2.459.145 3.656.049 6.646-.532 12.478-4.447 15.606-10.166-10.383-1.504-17.813-10.971-16.695-21.525z"/></g><path d="m129.708 43.27c-21.604 12.805-41.278 28.698-57.9 47.524-.885 1.002-1.763 2.012-2.633 3.031-13.408 15.682-24.638 32.705-33.571 50.705-19.486 39.265-23.774 86.322-19.484 131.059.164 1.713 3.452 9.799 14.296 8.936s20.869-4.334 20.003-15.141c-3.857-48.124 9.278-93.765 34.379-131.043 33.992-50.483 89.836-94.393 155.23-99.596 72.602-5.778 171.464 42.552 183.367 92.252l-6.432-1.9c-5.249-1.551-10.633-.819-15.081 1.615-4.39 2.403-3.816 9.179-3.177 11.988 2.403 10.575 7.952 17.088 18.382 20.17l28.595 8.936c10.472 3.384 33.338 6.241 35.488-4.34l4.927-7.181 12.463-43.135c3.01-10.418-3.024-21.296-13.478-24.296-10.457-3.001-21.37 3.014-24.379 13.431l-1.898 6.567c-49.276-70.678-133.248-111.529-221.82-104.481-6.712.534-13.361 1.332-19.935 2.386-30.026 4.817-58.787 15.588-84.947 31.093z" fill="#bed9fd"/><g fill="#9ec8fc"><path d="m423.395 130.996c1.227-1.051 2.215-2.702 3.008-4.586 3.025-7.194 1.6-15.528-3.335-21.573-42.186-51.668-107.9-80.823-176.947-75.329-78.884 6.278-139.993 54.132-169.436 121.913 32.751-57.427 92.532-98.271 163.436-103.913 64.552-5.137 136.755 21.193 183.274 83.488z"/><path d="m50.333 268.101c-2.388 1.322-5.08 2.184-7.981 2.414-10.844.863-20.337-7.199-21.204-18.006-3.307-41.264 3.705-81.774 20.058-118.595-23.424 41.883-33.976 89.712-30.058 138.594.866 10.808 10.359 18.869 21.204 18.006 10.844-.863 18.933-10.323 18.067-21.131-.034-.428-.054-.854-.086-1.282z"/><path d="m469.029 162.474-53.261-15.734c-7.61-2.248-12.815-8.677-13.883-16.024-4.39 2.403-7.869 6.46-9.405 11.623-3.092 10.395 2.858 21.319 13.288 24.401l53.261 15.734c10.471 3.384 22.66-3.788 24.81-14.37l2.534-8.77c-4.901 3.577-11.399 5.062-17.344 3.14z"/></g></g></g><g><path d="m385.727 293.914c4.053.853 8.03-1.745 8.881-5.799 2.578-12.279 3.496-24.915 2.729-37.556-4.712-77.577-71.706-136.875-149.319-132.166-37.603 2.277-72.065 19.053-97.04 47.236-24.978 28.185-37.476 64.403-35.193 101.985 4.536 74.694 66.789 132.427 140.697 132.427 48.742.301 95.931-26.253 121.03-68.426 2.135-3.55.988-8.158-2.562-10.293-3.55-2.134-8.156-.987-10.292 2.562-21.435 35.637-58.99 58.412-100.461 60.924-69.355 4.205-129.23-48.778-133.44-118.103-2.039-33.58 9.129-65.943 31.446-91.127 22.319-25.185 53.117-40.176 86.721-42.211 69.364-4.206 129.231 48.779 133.44 118.103.687 11.304-.134 22.597-2.436 33.565-.851 4.052 1.746 8.028 5.799 8.879z"/><path d="m162.832 211.623c-3.833-1.565-8.213.271-9.779 4.106-9.469 23.173-10.824 49.25-3.816 73.427 12.633 46.187 58.759 81.42 107.184 80.687 35.484.397 71.871-18.208 92.116-48.089 35.179-50.662 22.581-120.499-28.081-155.678-42.104-29.237-98.5-26.199-137.14 7.39-3.127 2.718-3.458 7.455-.74 10.581 2.717 3.126 7.455 3.456 10.58.74 33.453-29.079 82.283-31.708 118.745-6.389 43.868 30.461 54.776 90.933 24.315 134.801-14.756 21.251-36.904 35.483-62.365 40.076-25.459 4.59-51.186-1.005-72.437-15.761-36.976-25.675-51.476-74.507-34.477-116.111 1.568-3.835-.271-8.213-4.105-9.78z"/><path d="m233.339 203.927c-7.691-7.959-22.873-9.176-31.818 0-7.96 7.691-9.177 22.873-.001 31.82 7.692 7.959 22.872 9.178 31.82 0 8.771-8.772 8.771-23.046-.001-31.82.001.001.001.001 0 0zm-10.606 21.214c-2.234 2.133-6.83 3.401-10.607 0-2.132-2.234-3.399-6.829.001-10.606 2.233-2.133 6.829-3.4 10.606 0 2.923 2.924 2.923 7.682 0 10.606z"/><path d="m279.811 282.221c-8.771 8.772-8.771 23.047.001 31.82 8.09 8.013 22.473 9.211 31.82 0 8.771-8.772 8.771-23.047 0-31.819-8.214-8.404-23.074-8.704-31.821-.001zm21.215 21.212c-2.926 2.924-7.684 2.925-10.607 0-2.924-2.924-2.924-7.682-.001-10.606 2.342-2.16 6.717-3.396 10.607 0 2.924 2.925 2.924 7.682.001 10.606z"/><path d="m299.064 206.399-95 95c-2.929 2.929-2.929 7.678 0 10.606 2.346 2.163 6.712 3.401 10.607 0l95-95c2.929-2.929 2.929-7.678 0-10.606s-7.677-2.928-10.607 0z"/><path d="m482.665 236.091c-14.37-.409-27.343 11.743-27.626 26.649-1.959 102.623-80.475 186.181-182.635 194.363-18.637 1.492-37.353.341-55.631-3.418-4.054-.833-8.021 1.778-8.856 5.835s1.777 8.023 5.835 8.857c19.666 4.045 39.804 5.283 59.85 3.678 109.879-8.8 194.328-98.663 196.436-209.029.126-6.631 5.539-11.94 12.113-11.94 5.824-.102 12.185 5.424 12.111 12.408-1.122 58.837-23.909 114.999-64.161 158.139-40.522 43.43-95.417 69.957-154.572 74.694-69.817 5.598-138.188-19.797-187.584-69.654-2.04-2.058-5.082-2.756-7.813-1.798-2.733.959-4.669 3.407-4.974 6.287l-.729 6.891c-.617 5.822-5.269 10.384-11.061 10.848-6.275.661-13.907-5.418-13.034-13.426l5.633-53.183c.052-5.123 5.533-11.971 12.704-11.552l49.053 2.385c6.675.324 11.841 6.044 11.517 12.75-.303 5.367-5.094 11.855-12.687 11.569l-5.287-.257c-3.096-.149-5.963 1.616-7.22 4.449-1.257 2.832-.643 6.145 1.544 8.338 20.706 20.767 45.013 36.797 72.245 47.645 3.846 1.532 8.211-.344 9.743-4.192s-.344-8.21-4.192-9.743c-20.354-8.107-38.95-19.33-55.463-33.45 7.89-3.125 16.114-13.234 16.299-23.635.724-14.965-10.838-27.731-25.771-28.457l-48.988-2.382c-12.89-1.133-27.843 10.561-28.435 25.151l-5.611 52.983c-1.633 16.243 11.883 31.347 29.146 29.958 10.406-.833 19.166-7.542 22.942-16.864 51.298 46.389 120.033 69.945 189.219 64.291 62.896-5.038 121.261-33.24 164.342-79.413 42.781-45.85 66.998-105.544 68.192-168.086.287-14.981-11.642-27.402-26.594-27.689z"/><path d="m51.472 288.56c4.718-5.518 6.997-12.539 6.417-19.768-4.23-52.794 12.476-104.134 47.041-144.563 34.572-40.436 82.795-65.027 135.785-69.244 63.377-5.046 123.884 19.545 165.255 66.349-9.533 1.943-17.721 8.935-20.675 18.87-4.16 12.888 3.734 29.778 18.352 33.732l53.179 15.709c12.828 4.532 31.432-4.693 34.301-19.719l2.745-9.504c1.149-3.979-1.145-8.138-5.124-9.287-3.977-1.147-8.137 1.145-9.286 5.124-.24.898-2.854 9.739-2.966 10.355-1.007 5.049-8.295 10.944-15.336 8.67l-53.263-15.734c-5.144-1.562-10.314-7.765-8.225-15.071 1.91-6.422 8.71-10.095 15.171-8.188l6.432 1.9c3.083.912 6.414-.248 8.265-2.885 1.85-2.636 1.81-6.159-.1-8.753-21.388-29.061-50.081-52.421-82.977-67.555-33.311-15.324-70.289-21.883-106.938-18.966-56.976 4.535-108.825 30.975-145.995 74.449-37.177 43.482-55.145 98.709-50.592 155.509.382 5.384-3.606 12.372-11.187 13.056-6.721.542-12.599-4.458-13.134-11.129-5.075-63.336 14.901-124.852 56.251-173.215 13.404-15.676 28.686-29.522 45.419-41.154 3.401-2.364 4.242-7.038 1.878-10.439-2.363-3.4-7.035-4.243-10.438-1.877-17.786 12.362-34.022 27.072-48.259 43.722-43.961 51.417-65.199 116.82-59.801 184.161 1.136 14.181 13.068 24.972 27.092 24.971 6.668.047 15.25-3.109 20.713-9.526z"/><path d="m149.658 40.14c27.383-13.655 56.963-21.829 87.921-24.292 84.431-6.715 166.835 32.097 215.081 101.296 1.654 2.372 4.526 3.584 7.375 3.11 2.853-.471 5.18-2.54 5.982-5.318l1.897-6.567c1.86-6.436 8.639-10.161 15.105-8.305 5.157 1.523 10.376 7.685 8.343 15.007l-2.336 8.086c-1.15 3.979 1.145 8.137 5.123 9.287 3.019.877 7.642-.518 9.287-5.124l2.336-8.085c4.059-12.92-3.967-29.748-18.615-33.588-11.894-3.414-24.259 1.667-30.545 11.628-50.904-65.93-136.603-103.672-220.223-96.38-32.883 2.617-64.315 11.305-93.425 25.821-3.707 1.849-5.214 6.352-3.365 10.059 1.849 3.706 6.352 5.213 10.059 3.365z"/></g></g></svg>